<svg xmlns="http://www.w3.org/2000/svg" width="25" height="22" viewBox="0 0 25 22">
  <path d="M0.815217391,2.71739133e-06 C0.364972826,2.71739133e-06 0,0.36498913 0,0.815220109 C0,1.26545109 0.364972826,1.6304375 0.815217391,1.6304375 L4.06760864,1.6304375 C5.41684777,4.97214674 6.74584234,8.31997283 8.08423908,11.6678043 L6.85293473,14.6314457 C6.74978255,14.878538 6.77880429,15.1764728 6.92769016,15.399 C7.07660321,15.6215272 7.34095103,15.7619891 7.6086956,15.760875 L21.1956521,15.760875 C21.6263315,15.7668533 22.0224728,15.3763913 22.0224728,14.9456576 C22.0224728,14.5149239 21.6263315,14.1243533 21.1956521,14.1304402 L8.83152168,14.1304402 L9.53635864,12.4490543 L22.6222826,11.4045707 C22.9648097,11.3776685 23.2748641,11.1108207 23.3525815,10.7761739 L24.9830162,3.7109375 C25.0896467,3.23505978 24.6724456,2.71580163 24.1847826,2.7173913 L6.25847821,2.7173913 L5.37532603,0.50951087 C5.25440212,0.210646739 4.94195647,8.15217392e-06 4.61956516,0 L0.815217391,2.71739133e-06 Z M6.91236408,4.3478288 L23.1572826,4.3478288 L21.8919836,9.83355978 L9.50239125,10.8186196 L6.91236408,4.3478288 Z M10.3260869,16.3043533 C8.83497277,16.3043533 7.6086956,17.5306033 7.6086956,19.0217446 C7.6086956,20.5128587 8.83497277,21.7391359 10.3260869,21.7391359 C11.817201,21.7391359 13.0434782,20.5128587 13.0434782,19.0217446 C13.0434782,17.5306304 11.817201,16.3043533 10.3260869,16.3043533 Z M18.4782608,16.3043533 C16.9871467,16.3043533 15.7608695,17.5306304 15.7608695,19.0217446 C15.7608695,20.5128587 16.9871467,21.7391359 18.4782608,21.7391359 C19.9693749,21.7391359 21.1956521,20.5128587 21.1956521,19.0217446 C21.1956521,17.5306033 19.9693749,16.3043533 18.4782608,16.3043533 Z M10.3260869,17.934788 C10.9360597,17.934788 11.4130434,18.4117717 11.4130434,19.0217446 C11.4130434,19.6317174 10.9360597,20.1087011 10.3260869,20.1087011 C9.71616842,20.1087011 9.23913038,19.6316902 9.23913038,19.0217446 C9.23913038,18.4117989 9.71616842,17.934788 10.3260869,17.934788 Z M18.4782608,17.934788 C19.0881793,17.934788 19.5652173,18.4117989 19.5652173,19.0217446 C19.5652173,19.6316902 19.0881793,20.1087011 18.4782608,20.1087011 C17.868288,20.1087011 17.3913043,19.6317174 17.3913043,19.0217446 C17.3913043,18.4117717 17.868288,17.934788 18.4782608,17.934788 Z"/>
</svg>
