<svg xmlns="http://www.w3.org/2000/svg" width="1480" height="740" viewBox="0 0 1480 740"><g fill-rule="evenodd"><path d="M369.166 550.06c-18.95-46.47-29.39-97.306-29.39-150.577C339.776 178.854 518.862 0 739.776 0s400 178.854 400 399.483c0 53.27-10.44 104.107-29.39 150.577h-741.22zm670.61-9.789l-58.993-138.433c-.432-1.015-1.24-1.072-1.805-.124l-23.045 38.635c-.565.947-1.444.915-1.956-.056L880.934 301.77c-.516-.977-1.562-1.142-2.346-.358l-37.176 37.176c-.78.78-1.848.63-2.388-.34l-98.272-176.495c-.54-.968-1.347-.934-1.801.066l-98.126 216.362c-.456 1.004-1.458 1.186-2.234.41l-57.182-57.182c-.778-.778-1.9-.661-2.51.27L501.1 440.384c-.607.928-1.567 2.44-2.145 3.383l-59.18 96.448 600.001.056zM34.416 682.382c22.499 0 32.249-11.86 32.249-25.716 0-31.084-48.499-21.471-48.499-36.95 0-6.243 5.5-10.362 14.125-10.362 8.75 0 17.624 2.996 24.124 9.487l8.375-10.86c-7.75-7.49-18.25-11.61-31.25-11.61-18.249 0-30.373 10.61-30.373 24.343 0 30.71 48.623 19.849 48.623 37.325 0 5.493-4.75 11.36-16.75 11.36-11.624 0-20.624-5.368-26.374-11.484L.542 669.15c7.374 7.864 18.5 13.232 33.874 13.232zm128.746 0c24.124 0 35.999-13.732 35.999-34.454v-50.309h-14.75v49.934c0 13.233-7.374 21.846-21.249 21.846-14 0-21.374-8.613-21.374-21.846V597.62h-14.75v50.434c0 20.472 11.875 34.33 36.124 34.33zm165.12-1.498l-20.374-32.707c10-1.622 19.75-9.612 19.75-24.467 0-15.355-10.75-26.09-27.25-26.09h-36.624v83.264h14.625V649.8h14.5l18.499 31.084h16.874zm-29.874-43.942h-20v-26.465h20c8.25 0 14.25 5.243 14.25 13.233s-6 13.232-14.25 13.232zm155.246 43.942l-20.375-32.707c10-1.622 19.75-9.612 19.75-24.467 0-15.355-10.75-26.09-27.25-26.09h-36.623v83.264h14.624V649.8h14.5l18.5 31.084h16.874zm-29.874-43.942h-20v-26.465h20c8.25 0 14.25 5.243 14.25 13.233s-6 13.232-14.25 13.232zm129.62 45.44c25 0 42.625-18.226 42.625-43.068S578.4 596.246 553.4 596.246c-25 0-42.624 18.226-42.624 43.068s17.625 43.068 42.624 43.068zm0-12.983c-16.874 0-27.623-12.982-27.623-30.085 0-17.227 10.75-30.085 27.624-30.085 16.75 0 27.624 12.858 27.624 30.085 0 17.103-10.875 30.085-27.624 30.085zm139.747 12.983c24.124 0 35.999-13.732 35.999-34.454v-50.309h-14.75v49.934c0 13.233-7.374 21.846-21.249 21.846-14 0-21.374-8.613-21.374-21.846V597.62h-14.75v50.434c0 20.472 11.875 34.33 36.124 34.33zm172.87-1.498V597.62h-14.624v57.799l-42.624-57.799h-15v83.265h14.625v-59.421l43.498 59.421h14.125zm95.622 0c26 0 43.624-17.102 43.624-41.57 0-24.467-17.624-41.695-43.624-41.695H930.64v83.265h31zm0-12.858h-16.374v-57.549h16.374c18.625 0 28.625 12.733 28.625 28.837 0 15.73-10.5 28.712-28.625 28.712zm119.247 12.858V597.62h-14.625v83.265h14.625zm136.871 0V597.62h-14.624v57.799l-42.624-57.799h-15v83.265h14.625v-59.421l43.499 59.421h14.124zm104.622 1.623c14.5 0 26.124-5.992 34.374-15.105v-31.209h-39.499v12.858h24.875v12.983c-3.75 3.495-11.25 7.49-19.75 7.49-16.5 0-28.749-12.733-28.749-30.21s12.25-30.085 28.75-30.085c9.374 0 17.249 4.869 21.624 11.11l12-6.74c-6.75-9.613-17.375-17.353-33.625-17.353-24.124 0-43.749 16.978-43.749 43.068 0 26.09 19.625 43.193 43.75 43.193zm124.997-.125c22.499 0 32.249-11.86 32.249-25.716 0-31.084-48.499-21.471-48.499-36.95 0-6.243 5.5-10.362 14.125-10.362 8.75 0 17.624 2.996 24.124 9.487l8.375-10.86c-7.75-7.49-18.25-11.61-31.25-11.61-18.249 0-30.373 10.61-30.373 24.343 0 30.71 48.623 19.849 48.623 37.325 0 5.493-4.75 11.36-16.75 11.36-11.624 0-20.624-5.368-26.374-11.484l-8.124 11.235c7.374 7.864 18.5 13.232 33.874 13.232z"/><path d="M0 540h1480v20H0zM0 720h1480v20H0z"/></g></svg>
