<svg xmlns="http://www.w3.org/2000/svg" width="20" height="17" viewBox="0 0 20 17">
  <path fill="#FFF" fill-rule="evenodd" d="M77.2896,18.2511752 C84.8368,18.2511752 88.9648,11.9983752 88.9648,6.57597523 C88.9648,6.39837523 88.9648,6.22157523 88.9528,6.04557523 C89.7558651,5.46470391 90.4490844,4.74547874 91,3.92157523 C90.2511032,4.25341664 89.4566634,4.47103814 88.6432,4.56717523 C89.4997952,4.05436087 90.1408988,3.24779281 90.4472,2.29757523 C89.641726,2.77553948 88.7605169,3.11238484 87.8416,3.29357523 C86.5696662,1.94109065 84.5485755,1.61006529 82.9116394,2.48611917 C81.2747034,3.36217304 80.42902,5.22743581 80.8488,7.03597523 C77.5495166,6.87057485 74.4755806,5.31223384 72.392,2.74877523 C71.3028982,4.62369101 71.8591903,7.02226281 73.6624,8.22637523 C73.009393,8.20702126 72.3706235,8.03086577 71.8,7.71277523 C71.8,7.72957523 71.8,7.74717523 71.8,7.76477523 C71.8005345,9.7180496 73.1774012,11.4004034 75.092,11.7871752 C74.4878957,11.9519273 73.8540645,11.9760107 73.2392,11.8575752 C73.7767583,13.5291135 75.3172596,14.6742023 77.0728,14.7071752 C75.619788,15.8491208 73.8248476,16.4690374 71.9768,16.4671752 C71.6503229,16.4665485 71.3241633,16.4467812 71,16.4079752 C72.8765088,17.6121965 75.0599307,18.2509488 77.2896,18.2479752" transform="translate(-71 -2)"/>
</svg>
