<?xml version="1.0" standalone="no"?>
<!DOCTYPE svg PUBLIC "-//W3C//DTD SVG 20010904//EN"
 "http://www.w3.org/TR/2001/REC-SVG-20010904/DTD/svg10.dtd">
<svg version="1.0" xmlns="http://www.w3.org/2000/svg"
 width="700.000000pt" height="700.000000pt" viewBox="0 0 700.000000 700.000000"
 preserveAspectRatio="xMidYMid meet">
<metadata>
Created by potrace 1.11, written by Peter Selinger 2001-2013
</metadata>
<g transform="translate(0.000000,700.000000) scale(0.100000,-0.100000)"
fill="#000000" stroke="none">
<path d="M1033 6989 c-277 -21 -471 -91 -648 -233 -202 -161 -323 -393 -367
-701 -19 -132 -19 -4978 0 -5110 22 -154 51 -255 107 -370 154 -317 424 -501
820 -557 132 -19 4978 -19 5110 0 154 22 255 51 370 107 317 154 501 424 557
820 19 132 19 4978 0 5110 -22 154 -51 255 -107 370 -101 207 -245 350 -450
450 -118 57 -178 76 -326 102 -86 15 -303 17 -2529 18 -1339 2 -2481 -1 -2537
-6z m2857 -2852 c167 -301 309 -547 315 -547 5 0 69 59 142 132 73 73 134 130
137 128 2 -3 120 -225 262 -493 203 -386 259 -486 269 -475 6 7 44 68 83 135
40 67 76 124 80 127 4 2 100 -212 213 -477 l205 -482 -2090 -3 c-1149 -1
-2091 0 -2094 2 -8 9 391 649 676 1086 157 239 286 437 289 440 2 2 95 -87
206 -198 111 -111 207 -202 213 -202 6 0 16 12 23 28 7 15 155 340 328 722
174 382 324 713 335 734 l20 39 42 -74 c22 -41 178 -321 346 -622z"/>
</g>
</svg>
